<?xml version="1.0" encoding="utf-8"?>
<!-- Svg Vector Icons : http://www.onlinewebfonts.com/icon -->
<!DOCTYPE svg PUBLIC "-//W3C//DTD SVG 1.1//EN" "http://www.w3.org/Graphics/SVG/1.1/DTD/svg11.dtd">
<svg version="1.1" xmlns="http://www.w3.org/2000/svg" xmlns:xlink="http://www.w3.org/1999/xlink" x="0px" y="0px" viewBox="0 0 1000 1000" enable-background="new 0 0 1000 1000" xml:space="preserve">
<metadata> Svg Vector Icons : http://www.onlinewebfonts.com/icon </metadata>
<g><path d="M43.7,344.4c18.8,0,33.7-15.2,33.7-34V147.2c0-37.5,31.8-68.2,69.3-68.2h163.2c18.8,0,34-15.5,34-34.2s-15.2-34.2-34-34.2H146.6C71.6,10.5,10,72.2,10,147.2v163.2C10,329.2,24.9,344.4,43.7,344.4z"/><path d="M854,10.5H690.7c-18.8,0-34,15.5-34,34.2c0,18.8,15.2,34.2,34,34.2H854c37.5,0,66.5,30.7,66.5,68.2v163.2c0,18.8,15.5,34,34.2,34s34.2-15.2,34.2-34V147.2C989,72.2,929,10.5,854,10.5z"/><path d="M954.7,657.3c-18.8,0-34.2,15.2-34.2,34v163.2c0,37.5-29,66.5-66.5,66.5H690.7c-18.8,0-34,15.5-34,34.2s15.2,34.2,34,34.2H854c75,0,135-59.9,135-134.9V691.3C989,672.5,973.5,657.3,954.7,657.3z"/><path d="M309.9,921H146.6c-37.5,0-69.3-29-69.3-66.5V691.3c0-18.8-14.9-34-33.7-34c-18.8,0-33.7,15.2-33.7,34v163.2c0,75,61.6,134.9,136.6,134.9h163.2c18.8,0,34-15.5,34-34.2S328.7,921,309.9,921z"/><path d="M956,464.1H44.6c-18.8,0-34,14.9-34,33.7c0,18.8,15.2,33.7,34,33.7H956c18.8,0,34-14.9,34-33.7C990,479,974.8,464.1,956,464.1z"/></g>
</svg>